# xmcd
#
# Track frame offsets: 
#        150
#        34387
#        51867
#        73297
#        95537
#        128092
#        147750
#        177950
#        191727
#        218537
#
# Disc length: 3077 seconds
#
# Revision: 8
# Processed by: cddbd v1.5.2PL0 Copyright (c) Steve Scherf et al.
# Submitted via: ExactAudioCopyFreeDBPlugin 1.0
#
DISCID=960c030a
DTITLE=Melvin Taylor - Willie Smith - Steve Potts - Melvin Taylor and The 
DTITLE=Slack Band
DYEAR=1995
DGENRE=Blues
TTITLE0=Texas Flood
TTITLE1=Depression Blues
TTITLE2=Grooving In New Orleans
TTITLE3=Talking To Anna Mae
TTITLE4=Tin Pan Alley
TTITLE5=All Your Love (I Miss Loving)
TTITLE6=Don't Throw Your Love On Me So Strong
TTITLE7=T-Bone Shuffle
TTITLE8=Voodoo Chile (Slight Return)
TTITLE9=Tequila
EXTD=
EXTT0=
EXTT1=
EXTT2=
EXTT3=
EXTT4=
EXTT5=
EXTT6=
EXTT7=
EXTT8=
EXTT9=
PLAYORDER=
